<svg width="157" height="186" viewBox="0 0 157 186" fill="none" xmlns="http://www.w3.org/2000/svg">
    <path d="M77.9375 3L155 49.125M77.9375 3L2 49.125M77.9375 3V44.625M77.9375 183L155 139.125M77.9375 183L2 139.125M77.9375 183V44.625M155 139.125V49.125M155 139.125L124.062 120.926M155 49.125L124.062 66.5625M2 49.125V139.125M2 49.125L35.1875 68.6471M2 139.125L34.625 119.438M124.062 66.5625V99.75M124.062 66.5625L93.125 49.125V82.875L124.062 99.75M124.062 120.926V99.75M124.062 120.926L35.1875 68.6471M124.062 120.926L77.9375 146.671M77.9375 44.625L35.1875 68.6471M35.1875 70.5L34.9935 87.375M34.625 119.438L64.4375 136.875V104.25L34.9935 87.375M34.625 119.438L34.9935 87.375" stroke="white" stroke-width="3.73171"/>
    </svg>
    