<svg width="152" height="42" viewBox="0 0 152 42" fill="none"
    xmlns="http://www.w3.org/2000/svg">
    <path d="M60.5312 17.2756C60.4555 16.6032 60.143 16.0824 59.5938 15.7131C59.0445 15.339 58.3532 15.152 57.5199 15.152C56.9233 15.152 56.4072 15.2467 55.9716 15.4361C55.536 15.6207 55.1974 15.8764 54.956 16.2031C54.7192 16.5251 54.6009 16.892 54.6009 17.304C54.6009 17.6496 54.6813 17.9479 54.8423 18.1989C55.008 18.4498 55.2235 18.6605 55.4886 18.831C55.7585 18.9967 56.0473 19.1364 56.3551 19.25C56.6629 19.3589 56.9588 19.4489 57.2429 19.5199L58.6634 19.8892C59.1274 20.0028 59.6032 20.1567 60.0909 20.3509C60.5786 20.545 61.0308 20.8007 61.4474 21.1179C61.8641 21.4351 62.2003 21.8281 62.456 22.2969C62.7164 22.7656 62.8466 23.3267 62.8466 23.9801C62.8466 24.804 62.6335 25.5355 62.2074 26.1747C61.786 26.8139 61.1728 27.3182 60.3679 27.6875C59.5677 28.0568 58.5994 28.2415 57.4631 28.2415C56.3741 28.2415 55.4318 28.0687 54.6364 27.723C53.8409 27.3774 53.2183 26.8873 52.7685 26.2528C52.3187 25.6136 52.0701 24.8561 52.0227 23.9801H54.2244C54.267 24.5057 54.4375 24.9437 54.7358 25.294C55.0388 25.6397 55.4247 25.8977 55.8935 26.0682C56.367 26.2339 56.8854 26.3168 57.4489 26.3168C58.0691 26.3168 58.6207 26.2197 59.1037 26.0256C59.5914 25.8267 59.9749 25.5521 60.2543 25.2017C60.5336 24.8466 60.6733 24.4323 60.6733 23.9588C60.6733 23.5279 60.5502 23.1752 60.304 22.9006C60.0625 22.6259 59.7334 22.3987 59.3168 22.2188C58.9048 22.0388 58.4384 21.8802 57.9176 21.7429L56.1989 21.2741C55.0341 20.9569 54.1108 20.4905 53.429 19.875C52.7519 19.2595 52.4134 18.4451 52.4134 17.4318C52.4134 16.5937 52.6406 15.8622 53.0952 15.2372C53.5497 14.6122 54.1652 14.1269 54.9418 13.7812C55.7183 13.4309 56.5942 13.2557 57.5696 13.2557C58.5545 13.2557 59.4233 13.4285 60.1761 13.7741C60.9337 14.1198 61.5303 14.5956 61.9659 15.2017C62.4015 15.803 62.6288 16.4943 62.6477 17.2756H60.5312ZM64.3469 13.4545H66.8398L70.6396 20.0668H70.7958L74.5955 13.4545H77.0884L71.8114 22.2898V28H69.6239V22.2898L64.3469 13.4545ZM90.9006 13.4545V28H88.8835L81.4901 17.3324H81.3551V28H79.1605V13.4545H81.1918L88.5923 24.1364H88.7273V13.4545H90.9006ZM93.3846 15.3438V13.4545H104.642V15.3438H100.103V28H97.9158V15.3438H93.3846ZM107.129 28V13.4545H109.324V19.7756H116.575V13.4545H118.777V28H116.575V21.6577H109.324V28H107.129ZM124.168 13.4545V28H121.973V13.4545H124.168ZM127.364 28V13.4545H136.384V15.3438H129.558V19.7756H135.737V21.6577H129.558V28H127.364ZM137.96 13.4545H140.453L144.253 20.0668H144.409L148.209 13.4545H150.702L145.425 22.2898V28H143.237V22.2898L137.96 13.4545Z" fill="#B026FF"/>
    <path d="M17.875 1L35 11.25M17.875 1L1 11.25M17.875 1V10.25M17.875 41L35 31.25M17.875 41L1 31.25M17.875 41V10.25M35 31.25V11.25M35 31.25L28.125 27.2059M35 11.25L28.125 15.125M1 11.25V31.25M1 11.25L8.375 15.5882M1 31.25L8.25 26.875M28.125 15.125V22.5M28.125 15.125L21.25 11.25V18.75L28.125 22.5M28.125 27.2059V22.5M28.125 27.2059L8.375 15.5882M28.125 27.2059L17.875 32.9268M17.875 10.25L8.375 15.5882M8.375 16L8.3319 19.75M8.25 26.875L14.875 30.75V23.5L8.3319 19.75M8.25 26.875L8.3319 19.75" stroke="#B026FF" stroke-width="0.829268"/>
</svg>
